#!OML:ASF Y:\EmotionMaleHayes\Project 1\Capture day 1\Session 1\Male1.ASF
:FULLY-SPECIFIED
:DEGREES
225
root 48.6015 17.2054 -1.85401 202.533 95.8455 214.226
lowerback 10.1946 3.03139 -2.68641
upperback 2.91927 3.84857 0.192187
thorax -2.85263 1.96134 1.22014
lowerneck -25.169 0.153597 2.09064
upperneck 21.4254 -0.716593 0.690046
head 11.0947 -0.0302303 -0.204181
rclavicle -3.04389e-016 2.5842e-015
rhumerus -19.2286 25.2578 -85.5529
rradius 75.1004
rwrist -2.47019
rhand -18.5518 -21.5703
rfingers 7.12502
rthumb 7.73776 -51.4087
lclavicle -3.04389e-016 2.5842e-015
lhumerus -55.4854 -18.8446 97.1915
lradius 42.0176
lwrist 14.0404
lhand -24.2352 -18.8808
lfingers 7.12502
lthumb 2.25019 11.0871
rfemur 8.6007 0.279752 15.5177
rtibia 12.4507
rfoot -10.0149 3.24244
rtoes 18.1292
lfemur 8.67772 5.68103 -18.4456
ltibia 15.2013
lfoot -12.7784 10.0285
ltoes 1.66159
226
root 48.64 17.2137 -1.8717 199.361 95.5046 211.122
lowerback 10.1886 2.90318 -2.21771
upperback 2.93527 3.72958 0.289524
thorax -2.80541 1.90028 1.07581
lowerneck -25.1634 0.15097 2.04319
upperneck 21.4437 -0.712448 0.729068
head 11.101 -0.0268249 -0.181373
rclavicle -8.88319e-016 1.98785e-016
rhumerus -19.1733 25.7101 -85.7523
rradius 75.0971
rwrist -2.08649
rhand -18.2259 -21.7728
rfingers 7.12502
rthumb 8.05231 -51.5994
lclavicle -8.88319e-016 1.98785e-016
lhumerus -55.1599 -18.6489 96.8111
lradius 41.6615
lwrist 13.2167
lhand -23.5657 -18.531
lfingers 7.12502
lthumb 2.89679 11.429
rfemur 9.11918 -0.0542191 15.8368
rtibia 11.748
rfoot -9.66915 3.03427
rtoes 13.5516
lfemur 9.31695 5.45871 -18.0225
ltibia 14.3804
lfoot -12.6935 9.99206
ltoes 1.8453
227
root 48.6724 17.2236 -1.88783 201.413 95.2981 213.192
lowerback 10.1942 2.76512 -2.33625
upperback 2.90388 3.53187 0.251037
thorax -2.83813 1.80249 1.12655
lowerneck -25.059 0.330095 2.3605
upperneck 21.5397 -0.476465 0.348261
head 11.1171 0.0574731 -0.33411
rclavicle -5.90142e-015 -1.98785e-015
rhumerus -19.1298 26.1738 -86.0364
rradius 75.0458
rwrist -1.77165
rhand -17.7326 -21.6675
rfingers 7.12502
rthumb 8.52837 -51.4753
lclavicle -5.90142e-015 -1.98785e-015
lhumerus -54.8464 -18.3145 96.326
lradius 41.4843
lwrist 12.3229
lhand -22.6665 -17.8136
lfingers 7.12502
lthumb 3.7652 12.1329
rfemur 9.57949 -0.316717 15.5295
rtibia 11.4699
rfoot -10.0073 3.1145
rtoes 15.0194
lfemur 9.83869 5.16872 -18.2633
ltibia 13.5419
lfoot -12.5045 10.1011
ltoes 2.14677
228
root 48.7034 17.2307 -1.90146 202.228 95.3102 214.012
lowerback 10.2095 2.76616 -2.42483
upperback 2.85742 3.52098 0.219621
thorax -2.89754 1.79764 1.14275
lowerneck -24.9477 0.329401 2.25934
upperneck 21.4375 -0.495177 0.574729
head 11.0597 0.0692945 -0.237418
rclavicle -7.45443e-016 3.37934e-015
rhumerus -19.1333 26.5471 -86.2282
rradius 74.9941
rwrist -1.49532
rhand -16.844 -21.4068
rfingers 7.12502
rthumb 9.38587 -51.1779
lclavicle -7.45443e-016 3.37934e-015
lhumerus -54.4786 -18.2213 96.0006
lradius 41.2409
lwrist 11.4919
lhand -21.8713 -17.2134
lfingers 7.12502
lthumb 4.53304 12.7181
rfemur 9.90422 -0.349022 15.3132
rtibia 11.0733
rfoot -10.084 3.1437
rtoes 14.7155
lfemur 10.3212 4.99856 -18.4094
ltibia 12.8351
lfoot -12.345 10.2296
ltoes 3.00237
229
root 48.7424 17.2394 -1.91221 210.694 95.6116 222.478
lowerback 10.2214 2.8182 -3.40829
upperback 2.73435 3.47883 0.0490943
thorax -3.07568 1.78273 1.51651
lowerneck -24.9743 0.188953 1.91283
upperneck 21.5996 -0.631373 0.83828
head 11.1262 0.0165173 -0.106115
rclavicle 1.41758e-014 1.98785e-016
rhumerus -19.4264 26.9097 -86.3964
rradius 75.032
rwrist -1.26836
rhand -15.6589 -21.3824
rfingers 7.12502
rthumb 10.5292 -51.0986
lclavicle 1.41758e-014 1.98785e-016
lhumerus -54.3054 -18.1328 95.8534
lradius 41.1335
lwrist 10.8039
lhand -21.209 -17.048
lfingers 7.12502
lthumb 5.17252 12.8688
rfemur 10.3544 -0.647428 14.0255
rtibia 10.5146
rfoot -9.98658 3.43185
rtoes 13.9042
lfemur 10.6763 4.88676 -19.5195
ltibia 12.2953
lfoot -12.2692 10.1414
ltoes 3.32123
230
root 48.7681 17.2464 -1.94118 220.477 96.0307 232.106
lowerback 10.0536 2.78462 -4.23401
upperback 2.69546 3.34648 -0.303997
thorax -3.04013 1.72146 1.6362
lowerneck -25.09 0.100358 1.69437
upperneck 21.6707 -0.713785 0.976848
head 11.175 -0.0196766 -0.0328904
rclavicle 2.42455e-014 1.72943e-014
rhumerus -19.4637 27.1598 -86.5649
rradius 75.0233
rwrist -1.16051
rhand -14.9834 -21.3363
rfingers 7.12502
rthumb 11.1808 -51.0184
lclavicle 2.42455e-014 1.72943e-014
lhumerus -53.9196 -18.2372 95.5753
lradius 41.1812
lwrist 10.264
lhand -20.586 -16.9738
lfingers 7.12502
lthumb 5.77404 12.9276
rfemur 10.5606 -1.71688 12.1885
rtibia 10.1224
rfoot -9.66206 4.3536
rtoes 13.1443
lfemur 10.7691 4.77596 -21.0538
ltibia 11.7436
lfoot -11.9651 10.177
ltoes 1.67218
231
root 48.7841 17.2464 -1.9477 215.491 95.8429 227.092
lowerback 10.211 2.81014 -3.80553
upperback 2.6225 3.41536 -0.19263
thorax -3.19035 1.75519 1.49346
lowerneck -25.074 0.178638 1.85113
upperneck 21.687 -0.627273 0.842775
head 11.1774 0.0151041 -0.0935517
rclavicle -2.47238e-014 1.03368e-014
rhumerus -19.5652 27.5963 -86.8189
rradius 74.9704
rwrist -1.22451
rhand -14.8759 -21.2719
rfingers 7.12502
rthumb 11.2844 -50.9483
lclavicle -2.47238e-014 1.03368e-014
lhumerus -53.5262 -18.3014 95.2333
lradius 41.2254
lwrist 9.61784
lhand -20.0406 -16.7713
lfingers 7.12502
lthumb 6.3006 13.115
rfemur 10.6723 -1.26988 12.9471
rtibia 9.93198
rfoot -9.67838 4.02529
rtoes 13.3112
lfemur 11.1175 4.73025 -20.394
ltibia 11.2358
lfoot -11.9205 10.2787
ltoes 1.61888
